<svg width="57" height="64" viewBox="0 0 57 64" fill="none" xmlns="http://www.w3.org/2000/svg">
<g clip-path="url(#clip0_316_295)">
<path d="M28.2594 64C27.4014 64 26.6007 63.7668 25.8571 63.3586L18.2498 58.7517C17.1058 58.1102 17.6777 57.877 18.021 57.7603C19.5653 57.2355 19.8513 57.1189 21.4529 56.1859C21.6244 56.0692 21.8532 56.1275 22.0248 56.2442L27.859 59.8014C28.0878 59.918 28.3738 59.918 28.5454 59.8014L51.3673 46.3307C51.5961 46.214 51.7105 45.9808 51.7105 45.6892V18.806C51.7105 18.5145 51.5961 18.2812 51.3673 18.1646L28.5454 4.75223C28.3166 4.63561 28.0306 4.63561 27.859 4.75223L5.03704 18.1646C4.80826 18.2812 4.69386 18.5728 4.69386 18.806V45.6892C4.69386 45.9224 4.80826 46.214 5.03704 46.3307L11.2716 50.0045C14.6463 51.7539 16.7626 49.7129 16.7626 47.6719V21.1386C16.7626 20.7888 17.0486 20.4389 17.449 20.4389H20.3661C20.7093 20.4389 21.0524 20.7305 21.0524 21.1386V47.6719C21.0524 52.2788 18.5929 54.9613 14.3031 54.9613C12.9876 54.9613 11.958 54.9613 9.04087 53.5034L3.03512 50.0045C1.54798 49.1297 0.632812 47.4969 0.632812 45.7475V18.8644C0.632812 17.115 1.54798 15.4822 3.03512 14.6074L25.8571 1.13672C27.287 0.320313 29.2318 0.320313 30.6617 1.13672L53.4836 14.6074C54.9708 15.4822 55.886 17.115 55.886 18.8644V45.7475C55.886 47.4969 54.9708 49.1297 53.4836 50.0045L30.6617 63.4752C29.9753 63.7668 29.1174 64 28.2594 64Z" fill="#5FA04E"/>
<path d="M35.3519 45.5142C25.3423 45.5142 23.2832 40.849 23.2832 36.8836C23.2832 36.5337 23.5692 36.1839 23.9695 36.1839H26.9438C27.287 36.1839 27.573 36.4171 27.573 36.767C28.0306 39.8576 29.3462 41.3738 35.4091 41.3738C40.2137 41.3738 42.2729 40.2658 42.2729 37.6417C42.2729 36.1255 41.7009 35.0175 34.2079 34.2594C27.9734 33.6179 24.084 32.2184 24.084 27.145C24.084 22.4215 27.9734 19.6224 34.494 19.6224C41.8153 19.6224 45.4187 22.1883 45.8763 27.7865C45.8763 27.9615 45.8191 28.1364 45.7048 28.3114C45.5904 28.4279 45.4187 28.5446 45.2471 28.5446H42.2157C41.9296 28.5446 41.6437 28.3114 41.5865 28.0197C40.9001 24.8124 39.127 23.7627 34.4368 23.7627C29.1745 23.7627 28.5454 25.6289 28.5454 27.0284C28.5454 28.7195 29.289 29.2444 36.3815 30.1774C43.4168 31.1104 46.7343 32.4517 46.7343 37.4668C46.7343 42.5984 42.5588 45.5142 35.3519 45.5142Z" fill="#5FA04E"/>
</g>
<defs>
<clipPath id="clip0_316_295">
<rect width="56.32" height="64" fill="white"/>
</clipPath>
</defs>
</svg>
